<?xml version="1.0" encoding="utf-8"?>
<!-- Generator: Adobe Illustrator 21.1.0, SVG Export Plug-In . SVG Version: 6.00 Build 0)  -->
<svg version="1.1" id="Layer_1" xmlns="http://www.w3.org/2000/svg" xmlns:xlink="http://www.w3.org/1999/xlink" x="0px" y="0px"
	 viewBox="0 0 134.1 134.1" style="enable-background:new 0 0 134.1 134.1;" xml:space="preserve">
<style type="text/css">
	.st0{fill:#3594B9;}
	.st1{fill:#59B6BF;}
	.st2{fill:#7A8C8E;}
	.st3{fill:#75BDA6;}
</style>
<circle class="st0" cx="67" cy="74" r="23"/>
<circle class="st1" cx="67" cy="25" r="16"/>
<circle class="st2" cx="25" cy="99" r="16"/>
<circle class="st3" cx="109" cy="99" r="16"/>
<g>
	<path class="st1" d="M84,26c-0.1,1.4-0.3,2.7-0.7,4C101.2,36.6,114,53.8,114,74c0,2.9-0.3,5.7-0.8,8.5c1.3,0.3,2.6,0.8,3.8,1.5
		c0.7-3.3,1-6.6,1-10C118,51.9,103.8,33,84,26z"/>
</g>
<g>
	<path class="st2" d="M50.8,30c-0.4-1.3-0.6-2.6-0.7-4C30.3,33,16,51.9,16,74c0,3.4,0.3,6.7,1,10c1.2-0.6,2.5-1.1,3.8-1.5
		C20.3,79.8,20,76.9,20,74C20,53.8,32.9,36.6,50.8,30z"/>
</g>
<g>
	<path class="st3" d="M96.6,110.6C88.4,117.3,78.1,121,67,121c-10.9,0-21.3-3.8-29.5-10.5c-0.9,1-1.9,1.9-3.1,2.6
		C43.5,120.7,55,125,67,125c12.2,0,23.7-4.3,32.7-11.8C98.6,112.5,97.5,111.6,96.6,110.6z"/>
</g>
</svg>
